Patient4_TMGait_0pt5_01_left_05_EMG.mot
version=1
nRows=13
nColumns=33
inDegrees=no
endheader
time	1LAddLong	2LGlutMax	3LGlutMed	4LIliopsoas	5LSemiMemb	6LBicFemLong	7LRecFem	8LVastMed	9LVastLat	10LGasMed	11LTibAnt	12lTibPost	13LPeroneusLong	14LSol	15LExtDigLong	16LFlexDigLong	17RAddLong	18RGlutMax	19RGlutMed	20RIliopsoas	21RSemiMemb	22RBicFemLong	23RRecFem	24RVastMed	25RVastLat	26RGasMed	27RTibAnt	28RTibPost	29RPeroneusLong	30RSol	31RExtDigLong	32RFlexDigLong
7.575	0.006256	0.063782	0.10361	0.004272	0.045471	-0.004578	-0.077057	0.002594	-0.010071	-0.032501	0.049896	0.008545	-0.056152	0.049896	0.21103	-0.014191	0.020752	-0.62973	-0.22461	-0.000153	0.22415	-0.16083	0.13702	-0.20218	-0.008545	-0.001984	-0.10422	-0.001678	-0.055389	-0.019379	-0.001526	-0.014496
7.576	-0.000458	0.034485	0.12207	-0.000458	0.047455	0.001221	-0.076141	0.000305	0.000458	0.011902	0.036774	0.009155	0.010071	0.031738	0.11749	-0.020599	0.053864	-0.67154	-0.1355	-0.0354	0.27664	-0.007172	0.25314	-0.080261	-0.12558	0.004425	-0.064545	-0.006256	-0.11475	-0.05249	-0.00351	-0.011902
7.577	-0.001984	0.034943	0.11826	0.015106	0.023346	0.001068	-0.074615	0.001068	-0.00946	0.033264	0.067596	0.006866	-0.047607	-0.032654	0.65521	-0.018768	0.088043	-0.66452	0.037384	-0.083313	0.2066	0.27405	0.27954	-0.045013	-0.20233	0.007782	0.000916	0.000458	-0.069885	-0.045319	-0.00412	-0.013123
7.578	0.006256	0.032043	0.11337	0.000916	0.017548	-0.070496	-0.062103	-0.012665	-0.006104	0.007172	0.015564	0.02243	-0.033112	-0.059967	0.34882	-0.029297	0.10391	-0.66498	0.037384	-0.078583	0.1059	0.27832	0.33463	-0.061951	-0.21835	-0.010376	0.10544	-0.00061	-0.02655	-0.040131	-0.004578	-0.006714
7.579	0.019836	0.02533	0.11917	0.002136	-0.011749	-0.084381	-0.091705	-0.009003	0.003967	-0.037231	0.009308	0.007629	-0.046539	-0.027466	-0.24445	-0.02594	0.037537	-0.5246	-0.1294	0.10254	-0.23148	0.2742	0.26459	0.042267	-0.18234	-0.000916	0.2858	0.001221	0.059814	-0.057068	-0.002594	-0.016174
7.58	0.01297	0.02533	0.14358	0.016632	-0.035553	-0.092773	-0.091095	-0.023956	-0.007782	-0.062408	0.09552	0.010223	-0.04425	-0.083923	-0.24292	-0.020294	0.018921	-0.3685	-0.22049	0.1828	0.11139	0.2504	0.20203	0.10025	-0.10239	-0.000763	0.24689	0	0.082092	-0.083313	-0.004272	-0.016174
7.581	0.016022	0.069275	0.15976	0.012054	-0.029449	-0.09552	-0.083466	0.014954	-0.020905	-0.076141	0.053406	0.007019	0.066681	-0.14557	-0.20783	-0.00824	0.029297	-0.18601	-0.18845	0.095367	0.059662	0.15808	0.2092	0.19211	-0.017242	0.001068	0.078735	-0.000763	0.04776	-0.08255	0.00061	-0.018463
7.582	0.004425	0.1358	0.15106	0.008392	-0.003967	-0.001678	-0.065613	-0.006409	-0.028992	-0.098267	-0.09552	0.015564	0.094604	-0.1265	-0.073395	-0.007019	0.037537	-0.10819	-0.21194	-0.020447	0.14206	0.2034	0.15259	0.25192	0.26215	0	0.00885	0.001526	0.033264	-0.079041	-0.002899	-0.014648
7.583	-0.000153	0.11078	0.16296	0.009613	0.056458	0.009766	-0.080566	0.002747	-0.02594	-0.073395	-0.088959	0.008698	0.081329	0.009766	-0.054474	-0.006256	0.042114	-0.17914	-0.20233	0.031891	0.55542	0.20416	0.056152	0.13138	0.35431	-0.005035	-0.13977	-0.005798	0.005951	-0.075226	-0.001678	-0.024414
7.584	0.001373	0.097046	0.1622	0.007629	0.075073	0.029755	-0.078583	-0.001221	-0.016632	-0.059357	-0.023804	0.010834	0.007629	0.09201	-0.058746	0.001984	0.067902	-0.10376	-0.25635	0.012512	0.43503	0.15305	-0.19226	-0.044708	0.37155	-0.010834	-0.093689	0.00061	0.032806	-0.0177	-0.000153	-0.025482
7.585	-0.00412	0.097198	0.18372	0.0177	0.032196	0.04364	-0.079498	0.000305	-0.03067	0.049744	0.024719	0.009155	-0.12711	0.049133	-0.050964	-0.002441	0.088501	-0.099487	-0.31815	-0.06546	0.22232	0.11414	-0.17319	0.024414	0.51117	-0.006256	0.075836	-0.002136	0.021667	-0.059052	0.004272	-0.022583
7.586	-0.000916	0.10315	0.18921	-0.009766	0.004578	0.035248	-0.061951	-0.005646	-0.024567	0.21027	0.015717	0.002899	-0.11185	-0.021362	0.12314	-0.00946	0.059662	-0.16266	-0.21683	-0.066376	0.13443	0.2005	-0.1442	-0.056915	0.55328	-0.007324	0.11063	-0.00412	-0.002136	-0.095062	0	-0.01709
7.587	0.005035	0.12604	0.18753	0.005035	-0.010681	0.069427	-0.07843	-0.008392	-0.019836	0.23148	-0.019989	0.005951	-0.061646	-0.00061	0.16281	-0.018921	0.019989	-0.23178	-0.2002	-0.010071	0.10117	0.233	-0.046692	-0.22903	0.26794	-0.010376	0.067139	-0.002899	-0.031281	-0.053101	0.001221	-0.023346
